<svg xmlns="http://www.w3.org/2000/svg" version="1.1" xmlns:xlink="http://www.w3.org/1999/xlink" xmlns:svgjs="http://svgjs.dev/svgjs" width="20" height="20"><svg width="20" height="20" viewBox="0 0 20 20" fill="none" xmlns="http://www.w3.org/2000/svg">
<rect width="20" height="20" rx="5" fill="#00BF91"></rect>
<path d="M3.44523 8.48C3.44523 6.38 4.90523 4.9 6.97523 4.9C8.64523 4.9 9.90523 5.84 10.3052 7.36H8.42523C8.13523 6.76 7.60523 6.46 6.95523 6.46C5.90523 6.46 5.18523 7.24 5.18523 8.48C5.18523 9.72 5.90523 10.5 6.95523 10.5C7.60523 10.5 8.13523 10.2 8.42523 9.6H10.3052C9.90523 11.12 8.64523 12.05 6.97523 12.05C4.90523 12.05 3.44523 10.58 3.44523 8.48ZM16.4524 9.91C16.4524 11.09 15.5324 12.07 13.8924 12.07C12.3824 12.07 11.2024 11.32 11.1524 9.9H12.9724C13.0224 10.44 13.3624 10.7 13.8424 10.7C14.3424 10.7 14.6624 10.45 14.6624 10.04C14.6624 8.74 11.1524 9.44 11.1724 6.95C11.1724 5.62 12.2624 4.88 13.7324 4.88C15.2624 4.88 16.2924 5.64 16.3624 6.98H14.5124C14.4824 6.53 14.1624 6.26 13.7024 6.25C13.2924 6.24 12.9824 6.45 12.9824 6.89C12.9824 8.11 16.4524 7.56 16.4524 9.91Z" fill="white"></path>
<path d="M3.11523 14.9667C2.98637 14.9667 2.8819 15.0711 2.8819 15.2C2.8819 15.3289 2.98637 15.4333 3.11523 15.4333V14.9667ZM3.11523 15.4333C3.53677 15.4333 3.75267 15.1758 3.90334 15.0037C4.05892 14.8258 4.14927 14.7333 4.34023 14.7333V14.2667C3.9187 14.2667 3.7028 14.5242 3.55213 14.6963C3.39655 14.8742 3.3062 14.9667 3.11523 14.9667V15.4333Z" fill="white"></path>
<path d="M4.34023 14.7333C4.5312 14.7333 4.62154 14.8258 4.77713 15.0037C4.92779 15.1758 5.1437 15.4333 5.56523 15.4333V14.9667C5.37427 14.9667 5.28392 14.8742 5.12834 14.6963C4.97767 14.5242 4.76177 14.2667 4.34023 14.2667V14.7333Z" fill="white"></path>
<path d="M5.56523 15.4333C5.98677 15.4333 6.20267 15.1758 6.35333 15.0037C6.50892 14.8258 6.59927 14.7333 6.79023 14.7333V14.2667C6.3687 14.2667 6.15279 14.5242 6.00213 14.6963C5.84654 14.8742 5.7562 14.9667 5.56523 14.9667V15.4333Z" fill="white"></path>
<path d="M6.79023 14.7333C6.9812 14.7333 7.07154 14.8258 7.22713 15.0037C7.37779 15.1758 7.5937 15.4333 8.01523 15.4333V14.9667C7.82427 14.9667 7.73392 14.8742 7.57833 14.6963C7.42767 14.5242 7.21177 14.2667 6.79023 14.2667V14.7333Z" fill="white"></path>
<path d="M8.01523 15.4333C8.43677 15.4333 8.65267 15.1758 8.80333 15.0037C8.95892 14.8258 9.04927 14.7333 9.24023 14.7333V14.2667C8.8187 14.2667 8.60279 14.5242 8.45213 14.6963C8.29654 14.8742 8.2062 14.9667 8.01523 14.9667V15.4333Z" fill="white"></path>
<path d="M9.24023 14.7333C9.4312 14.7333 9.52154 14.8258 9.67713 15.0037C9.82779 15.1758 10.0437 15.4333 10.4652 15.4333V14.9667C10.2743 14.9667 10.1839 14.8742 10.0283 14.6963C9.87767 14.5242 9.66177 14.2667 9.24023 14.2667V14.7333Z" fill="white"></path>
<path d="M10.4652 15.4333C10.8868 15.4333 11.1027 15.1758 11.2533 15.0037C11.4089 14.8258 11.4993 14.7333 11.6902 14.7333V14.2667C11.2687 14.2667 11.0528 14.5242 10.9021 14.6963C10.7465 14.8742 10.6562 14.9667 10.4652 14.9667V15.4333Z" fill="white"></path>
<path d="M11.6902 14.7333C11.8812 14.7333 11.9715 14.8258 12.1271 15.0037C12.2778 15.1758 12.4937 15.4333 12.9152 15.4333V14.9667C12.7243 14.9667 12.6339 14.8742 12.4783 14.6963C12.3277 14.5242 12.1118 14.2667 11.6902 14.2667V14.7333Z" fill="white"></path>
<path d="M12.9152 15.4333C13.3368 15.4333 13.5527 15.1758 13.7033 15.0037C13.8589 14.8258 13.9493 14.7333 14.1402 14.7333V14.2667C13.7187 14.2667 13.5028 14.5242 13.3521 14.6963C13.1965 14.8742 13.1062 14.9667 12.9152 14.9667V15.4333Z" fill="white"></path>
<path d="M14.1402 14.7333C14.3312 14.7333 14.4215 14.8258 14.5771 15.0037C14.7278 15.1758 14.9437 15.4333 15.3652 15.4333V14.9667C15.1743 14.9667 15.0839 14.8742 14.9283 14.6963C14.7777 14.5242 14.5618 14.2667 14.1402 14.2667V14.7333Z" fill="white"></path>
<path d="M16.5902 14.7333C16.7191 14.7333 16.8236 14.6289 16.8236 14.5C16.8236 14.3711 16.7191 14.2667 16.5902 14.2667V14.7333ZM15.3652 15.4333C15.7868 15.4333 16.0027 15.1758 16.1533 15.0037C16.3089 14.8258 16.3993 14.7333 16.5902 14.7333V14.2667C16.1687 14.2667 15.9528 14.5242 15.8021 14.6963C15.6465 14.8742 15.5562 14.9667 15.3652 14.9667V15.4333Z" fill="white"></path>
</svg><style>@media (prefers-color-scheme: light) { :root { filter: none; } }
@media (prefers-color-scheme: dark) { :root { filter: none; } }
</style></svg>