<svg width="279" height="265" viewBox="0 0 279 265" fill="none" xmlns="http://www.w3.org/2000/svg">
  <path fill-rule="evenodd" clip-rule="evenodd"
    d="M114.172 0C100.365 0 89.1725 11.1929 89.1725 25V75C89.1725 88.8071 100.365 100 114.172 100H164.172C177.98 100 189.172 88.8071 189.172 75V25C189.172 11.1929 177.98 0 164.172 0H114.172ZM108.651 36.04C111.575 38.76 115.181 40.6415 119.027 41.7158L152.364 51.0278C156.327 52.1348 159.046 47.1073 155.951 44.3962L123.746 16.1862C118.566 11.5315 109.656 11.0178 104.989 16.1862C98.2559 24.5765 102.953 30.7386 108.651 36.04ZM172.013 16.0691C177.308 20.8278 178.573 29.7461 173.277 34.5048L165.887 40.2533C163.789 41.8848 160.838 41.8328 158.799 40.1283L151.977 34.4253C146.12 29.529 146.548 20.3966 152.836 16.0691C158.132 11.3103 166.717 11.3103 172.013 16.0691ZM159.318 58.2842C163.164 59.3585 166.77 61.24 169.694 63.96C175.392 69.2614 180.089 75.4235 173.356 83.8138C168.689 88.9822 159.779 88.4685 154.599 83.8138L122.394 55.6038C119.299 52.8927 122.018 47.8652 125.981 48.9722L159.318 58.2842ZM106.333 83.9309C101.037 79.1722 99.7723 70.2539 105.068 65.4952L112.458 59.7467C114.556 58.1152 117.508 58.1672 119.546 59.8717L126.368 65.5747C132.225 70.471 131.798 79.6034 125.509 83.9309C120.213 88.6897 111.628 88.6897 106.333 83.9309Z"
    fill="#1D9BE2" />
  <path fill-rule="evenodd" clip-rule="evenodd"
    d="M77.5185 145.109C75.3015 145.109 73.5042 146.906 73.5042 149.123C73.5042 151.34 75.3015 153.138 77.5185 153.138H82.6275C89.6817 153.138 95.4002 158.856 95.4002 165.91C95.4002 172.964 89.6817 178.683 82.6275 178.683H70.9497C69.5388 178.683 68.3951 177.539 68.3951 176.128C68.3951 174.718 69.5388 173.574 70.9497 173.574H82.6275C86.86 173.574 90.2911 170.143 90.2911 165.91C90.2911 161.678 86.86 158.247 82.6275 158.247H77.5185C72.4798 158.247 68.3951 154.162 68.3951 149.123C68.3951 144.085 72.4798 140 77.5185 140H92.8457C94.2565 140 95.4002 141.144 95.4002 142.555C95.4002 143.965 94.2565 145.109 92.8457 145.109H77.5185Z"
    fill="white" />
  <path fill-rule="evenodd" clip-rule="evenodd"
    d="M207.04 153.446C212.681 149.048 209.571 140 202.418 140H185.591C184.18 140 183.037 141.144 183.037 142.555C183.037 143.965 184.18 145.109 185.591 145.109H202.418C204.709 145.109 205.706 148.008 203.898 149.417L184.613 164.453C178.643 169.108 181.934 178.683 189.504 178.683H207.367C208.778 178.683 209.921 177.539 209.921 176.128C209.921 174.718 208.778 173.574 207.367 173.574H189.504C186.796 173.574 185.618 170.148 187.754 168.483L207.04 153.446Z"
    fill="white" />
  <path fill-rule="evenodd" clip-rule="evenodd"
    d="M124.863 147.104C118.089 143.105 109.335 145.312 105.312 151.996C101.297 158.666 103.493 167.306 110.252 171.296C111.396 171.971 113.137 172.441 115.204 172.691C117.222 172.935 119.322 172.944 121.011 172.848C122.42 172.768 123.626 173.846 123.706 175.254C123.786 176.663 122.708 177.869 121.3 177.949C119.39 178.057 116.978 178.052 114.59 177.763C112.251 177.48 109.691 176.898 107.655 175.696C98.4704 170.274 95.4447 158.483 100.934 149.362C106.415 140.255 118.29 137.291 127.46 142.704L126.162 144.904L127.46 142.704C136.645 148.126 139.671 159.917 134.181 169.039C133.063 170.896 132.691 172.208 132.772 173.165C132.839 173.96 133.261 174.987 135.029 176.226C136.184 177.035 136.465 178.628 135.655 179.784C134.846 180.939 133.253 181.22 132.097 180.41C129.486 178.581 127.911 176.324 127.681 173.594C127.465 171.027 128.497 168.574 129.804 166.404C133.818 159.734 131.622 151.094 124.863 147.104Z"
    fill="white" />
  <path fill-rule="evenodd" clip-rule="evenodd"
    d="M143.588 140C144.999 140 146.143 141.144 146.143 142.555V165.18C146.143 169.816 149.901 173.574 154.536 173.574C159.172 173.574 162.93 169.816 162.93 165.18V142.555C162.93 141.144 164.074 140 165.484 140C166.895 140 168.039 141.144 168.039 142.555V165.18C168.039 172.638 161.994 178.683 154.536 178.683C147.079 178.683 141.034 172.638 141.034 165.18V142.555C141.034 141.144 142.178 140 143.588 140Z"
    fill="white" />
  <path fill-rule="evenodd" clip-rule="evenodd"
    d="M175.254 140C176.665 140 177.809 141.144 177.809 142.555V176.128C177.809 177.539 176.665 178.683 175.254 178.683C173.844 178.683 172.7 177.539 172.7 176.128V142.555C172.7 141.144 173.844 140 175.254 140Z"
    fill="white" />
  <path opacity="0.5" fill-rule="evenodd" clip-rule="evenodd" d="M0.172485 208.873H278.172V209.873H0.172485V208.873Z"
    fill="#1D9BE2" />
  <path
    d="M24.239 251.597C24.239 253.954 23.5847 255.758 22.2761 257.008C20.9675 258.251 19.0827 258.873 16.6218 258.873H12.6277V244.595H17.0417C19.3139 244.595 21.0814 245.207 22.3445 246.431C23.6075 247.655 24.239 249.377 24.239 251.597ZM21.7781 251.675C21.7781 248.258 20.1798 246.549 16.9831 246.549H14.9617V256.91H16.6218C20.0593 256.91 21.7781 255.165 21.7781 251.675ZM29.1265 258.873H26.8315V248.072H29.1265V258.873ZM26.6948 245.211C26.6948 244.8 26.8055 244.485 27.0269 244.263C27.2547 244.042 27.577 243.931 27.9936 243.931C28.3973 243.931 28.7098 244.042 28.9311 244.263C29.159 244.485 29.2729 244.8 29.2729 245.211C29.2729 245.601 29.159 245.911 28.9311 246.138C28.7098 246.36 28.3973 246.47 27.9936 246.47C27.577 246.47 27.2547 246.36 27.0269 246.138C26.8055 245.911 26.6948 245.601 26.6948 245.211ZM41.2991 248.072V249.332L39.4534 249.674C39.6226 249.901 39.7626 250.181 39.8733 250.513C39.984 250.845 40.0393 251.197 40.0393 251.568C40.0393 252.681 39.6552 253.557 38.887 254.195C38.1187 254.833 37.0608 255.152 35.7131 255.152C35.3681 255.152 35.0556 255.126 34.7756 255.074C34.2808 255.38 34.0335 255.738 34.0335 256.148C34.0335 256.396 34.1474 256.581 34.3752 256.705C34.6096 256.828 35.0361 256.89 35.6545 256.89H37.5393C38.7307 256.89 39.6357 257.144 40.2542 257.652C40.8726 258.16 41.1819 258.892 41.1819 259.849C41.1819 261.073 40.6773 262.017 39.6682 262.681C38.6591 263.345 37.2008 263.677 35.2932 263.677C33.8219 263.677 32.6988 263.417 31.9241 262.896C31.1493 262.375 30.762 261.633 30.762 260.67C30.762 260.006 30.9703 259.446 31.387 258.99C31.8101 258.541 32.3993 258.228 33.1545 258.052C32.8486 257.922 32.5947 257.714 32.3928 257.427C32.1975 257.134 32.0999 256.828 32.0999 256.509C32.0999 256.106 32.2138 255.764 32.4417 255.484C32.6695 255.204 33.0081 254.927 33.4573 254.654C32.8974 254.413 32.4417 254.022 32.0901 253.482C31.745 252.935 31.5725 252.297 31.5725 251.568C31.5725 250.396 31.9404 249.488 32.676 248.843C33.4182 248.199 34.4729 247.877 35.8401 247.877C36.1461 247.877 36.4651 247.899 36.7971 247.945C37.1357 247.984 37.3896 248.026 37.5588 248.072H41.2991ZM32.8127 260.552C32.8127 261.047 33.0341 261.428 33.4768 261.695C33.926 261.962 34.5543 262.095 35.3616 262.095C36.6116 262.095 37.5426 261.916 38.1545 261.558C38.7665 261.2 39.0725 260.725 39.0725 260.133C39.0725 259.664 38.9032 259.328 38.5647 259.127C38.2327 258.931 37.6109 258.834 36.6995 258.834H34.9612C34.3036 258.834 33.7795 258.987 33.3889 259.293C33.0048 259.605 32.8127 260.025 32.8127 260.552ZM33.7991 251.568C33.7991 252.245 33.9716 252.766 34.3167 253.131C34.6682 253.495 35.1695 253.677 35.8206 253.677C37.1487 253.677 37.8127 252.968 37.8127 251.549C37.8127 250.845 37.6467 250.305 37.3147 249.927C36.9892 249.543 36.4911 249.351 35.8206 249.351C35.1565 249.351 34.6519 249.54 34.3069 249.918C33.9683 250.295 33.7991 250.845 33.7991 251.568ZM45.3662 258.873H43.0713V248.072H45.3662V258.873ZM42.9346 245.211C42.9346 244.8 43.0453 244.485 43.2666 244.263C43.4945 244.042 43.8167 243.931 44.2334 243.931C44.6371 243.931 44.9496 244.042 45.1709 244.263C45.3988 244.485 45.5127 244.8 45.5127 245.211C45.5127 245.601 45.3988 245.911 45.1709 246.138C44.9496 246.36 44.6371 246.47 44.2334 246.47C43.8167 246.47 43.4945 246.36 43.2666 246.138C43.0453 245.911 42.9346 245.601 42.9346 245.211ZM52.4412 257.213C53.0011 257.213 53.561 257.125 54.1209 256.949V258.677C53.867 258.788 53.5382 258.879 53.1345 258.951C52.7374 259.029 52.324 259.068 51.8943 259.068C49.7198 259.068 48.6326 257.922 48.6326 255.631V249.81H47.158V248.795L48.74 247.955L49.5213 245.67H50.9373V248.072H54.0135V249.81H50.9373V255.591C50.9373 256.145 51.074 256.555 51.3474 256.822C51.6274 257.082 51.992 257.213 52.4412 257.213ZM62.8072 258.873L62.3482 257.369H62.2701C61.7492 258.026 61.2251 258.476 60.6978 258.716C60.1704 258.951 59.4934 259.068 58.6665 259.068C57.6053 259.068 56.7753 258.782 56.1763 258.209C55.5839 257.636 55.2876 256.825 55.2876 255.777C55.2876 254.664 55.701 253.824 56.5279 253.258C57.3547 252.691 58.6145 252.382 60.3072 252.33L62.1724 252.271V251.695C62.1724 251.005 62.0096 250.491 61.6841 250.152C61.3651 249.807 60.8671 249.634 60.19 249.634C59.6366 249.634 59.106 249.716 58.5982 249.879C58.0904 250.041 57.6021 250.233 57.1333 250.455L56.3912 248.814C56.9771 248.508 57.6184 248.277 58.315 248.121C59.0116 247.958 59.6691 247.877 60.2876 247.877C61.6613 247.877 62.6965 248.176 63.3931 248.775C64.0962 249.374 64.4478 250.315 64.4478 251.597V258.873H62.8072ZM59.3892 257.31C60.2225 257.31 60.8898 257.079 61.3912 256.617C61.899 256.148 62.1529 255.494 62.1529 254.654V253.716L60.7662 253.775C59.6854 253.814 58.8977 253.996 58.4029 254.322C57.9146 254.641 57.6704 255.133 57.6704 255.797C57.6704 256.278 57.8137 256.653 58.1001 256.92C58.3866 257.18 58.8163 257.31 59.3892 257.31ZM69.7063 258.873H67.4114V243.677H69.7063V258.873ZM86.034 258.873H77.9578V244.595H86.034V246.568H80.2918V250.455H85.6727V252.408H80.2918V256.89H86.034V258.873ZM91.0484 253.355L87.4254 248.072H90.0426L92.5035 251.851L94.984 248.072H97.5816L93.9488 253.355L97.7672 258.873H95.1695L92.5035 254.83L89.8472 258.873H87.2496L91.0484 253.355ZM104.901 259.068C103.534 259.068 102.472 258.577 101.717 257.593H101.58C101.672 258.505 101.717 259.058 101.717 259.254V263.677H99.4222V248.072H101.278C101.33 248.274 101.437 248.756 101.6 249.517H101.717C102.433 248.424 103.507 247.877 104.94 247.877C106.287 247.877 107.336 248.365 108.084 249.341C108.84 250.318 109.217 251.688 109.217 253.453C109.217 255.217 108.833 256.594 108.065 257.584C107.303 258.573 106.248 259.068 104.901 259.068ZM104.344 249.752C103.433 249.752 102.765 250.019 102.342 250.552C101.925 251.086 101.717 251.939 101.717 253.111V253.453C101.717 254.768 101.925 255.722 102.342 256.314C102.759 256.9 103.439 257.193 104.383 257.193C105.177 257.193 105.789 256.868 106.219 256.216C106.649 255.565 106.864 254.638 106.864 253.433C106.864 252.222 106.649 251.308 106.219 250.689C105.796 250.064 105.171 249.752 104.344 249.752ZM116.36 259.068C114.681 259.068 113.366 258.58 112.415 257.603C111.471 256.62 110.999 255.269 110.999 253.55C110.999 251.786 111.439 250.399 112.317 249.39C113.196 248.381 114.404 247.877 115.941 247.877C117.366 247.877 118.493 248.31 119.319 249.175C120.146 250.041 120.56 251.233 120.56 252.75V253.99H113.362C113.395 255.038 113.678 255.845 114.212 256.412C114.746 256.972 115.498 257.252 116.468 257.252C117.106 257.252 117.698 257.193 118.245 257.076C118.799 256.952 119.391 256.75 120.023 256.47V258.336C119.463 258.603 118.896 258.791 118.323 258.902C117.75 259.013 117.096 259.068 116.36 259.068ZM115.941 249.615C115.211 249.615 114.625 249.846 114.183 250.308C113.747 250.771 113.486 251.444 113.401 252.33H118.304C118.291 251.438 118.076 250.764 117.659 250.308C117.243 249.846 116.67 249.615 115.941 249.615ZM128.406 247.877C128.868 247.877 129.249 247.909 129.549 247.974L129.324 250.113C128.999 250.035 128.66 249.996 128.308 249.996C127.39 249.996 126.645 250.295 126.072 250.894C125.506 251.493 125.223 252.271 125.223 253.228V258.873H122.928V248.072H124.724L125.027 249.976H125.144C125.502 249.332 125.968 248.821 126.541 248.443C127.12 248.065 127.742 247.877 128.406 247.877ZM133.616 258.873H131.321V248.072H133.616V258.873ZM131.184 245.211C131.184 244.8 131.295 244.485 131.516 244.263C131.744 244.042 132.066 243.931 132.483 243.931C132.887 243.931 133.199 244.042 133.421 244.263C133.648 244.485 133.762 244.8 133.762 245.211C133.762 245.601 133.648 245.911 133.421 246.138C133.199 246.36 132.887 246.47 132.483 246.47C132.066 246.47 131.744 246.36 131.516 246.138C131.295 245.911 131.184 245.601 131.184 245.211ZM141.384 259.068C139.704 259.068 138.389 258.58 137.439 257.603C136.495 256.62 136.023 255.269 136.023 253.55C136.023 251.786 136.462 250.399 137.341 249.39C138.22 248.381 139.428 247.877 140.964 247.877C142.39 247.877 143.516 248.31 144.343 249.175C145.17 250.041 145.583 251.233 145.583 252.75V253.99H138.386C138.419 255.038 138.702 255.845 139.236 256.412C139.77 256.972 140.522 257.252 141.492 257.252C142.13 257.252 142.722 257.193 143.269 257.076C143.822 256.952 144.415 256.75 145.046 256.47V258.336C144.486 258.603 143.92 258.791 143.347 258.902C142.774 259.013 142.12 259.068 141.384 259.068ZM140.964 249.615C140.235 249.615 139.649 249.846 139.206 250.308C138.77 250.771 138.51 251.444 138.425 252.33H143.328C143.315 251.438 143.1 250.764 142.683 250.308C142.266 249.846 141.693 249.615 140.964 249.615ZM157.453 258.873H155.149V252.232C155.149 251.399 154.979 250.777 154.641 250.367C154.309 249.957 153.778 249.752 153.049 249.752C152.079 249.752 151.369 250.038 150.92 250.611C150.471 251.184 150.246 252.144 150.246 253.492V258.873H147.951V248.072H149.748L150.07 249.488H150.188C150.513 248.974 150.975 248.577 151.574 248.297C152.173 248.017 152.837 247.877 153.567 247.877C156.158 247.877 157.453 249.195 157.453 251.832V258.873ZM164.763 259.068C163.128 259.068 161.885 258.593 161.032 257.642C160.186 256.685 159.763 255.315 159.763 253.531C159.763 251.715 160.205 250.318 161.091 249.341C161.983 248.365 163.268 247.877 164.948 247.877C166.087 247.877 167.113 248.088 168.024 248.511L167.331 250.357C166.361 249.98 165.56 249.791 164.929 249.791C163.06 249.791 162.126 251.031 162.126 253.511C162.126 254.722 162.357 255.634 162.819 256.246C163.288 256.851 163.972 257.154 164.87 257.154C165.892 257.154 166.859 256.9 167.77 256.392V258.394C167.36 258.635 166.921 258.808 166.452 258.912C165.99 259.016 165.427 259.068 164.763 259.068ZM174.787 259.068C173.107 259.068 171.792 258.58 170.841 257.603C169.897 256.62 169.425 255.269 169.425 253.55C169.425 251.786 169.865 250.399 170.744 249.39C171.623 248.381 172.83 247.877 174.367 247.877C175.793 247.877 176.919 248.31 177.746 249.175C178.573 250.041 178.986 251.233 178.986 252.75V253.99H171.789C171.821 255.038 172.104 255.845 172.638 256.412C173.172 256.972 173.924 257.252 174.894 257.252C175.532 257.252 176.125 257.193 176.672 257.076C177.225 256.952 177.817 256.75 178.449 256.47V258.336C177.889 258.603 177.323 258.791 176.75 258.902C176.177 259.013 175.522 259.068 174.787 259.068ZM174.367 249.615C173.638 249.615 173.052 249.846 172.609 250.308C172.173 250.771 171.912 251.444 171.828 252.33H176.73C176.717 251.438 176.502 250.764 176.086 250.308C175.669 249.846 175.096 249.615 174.367 249.615ZM196.007 248.912C196.007 250.403 195.519 251.545 194.542 252.34C193.566 253.134 192.176 253.531 190.372 253.531H188.888V258.873H186.554V244.595H190.665C192.449 244.595 193.784 244.96 194.669 245.689C195.561 246.418 196.007 247.493 196.007 248.912ZM188.888 251.568H190.128C191.326 251.568 192.205 251.36 192.765 250.943C193.325 250.526 193.605 249.875 193.605 248.99C193.605 248.17 193.354 247.558 192.853 247.154C192.351 246.75 191.57 246.549 190.509 246.549H188.888V251.568ZM200.67 258.873H198.375V243.677H200.67V258.873ZM210.479 258.873L210.02 257.369H209.942C209.421 258.026 208.897 258.476 208.37 258.716C207.842 258.951 207.165 259.068 206.339 259.068C205.277 259.068 204.447 258.782 203.848 258.209C203.256 257.636 202.96 256.825 202.96 255.777C202.96 254.664 203.373 253.824 204.2 253.258C205.027 252.691 206.286 252.382 207.979 252.33L209.844 252.271V251.695C209.844 251.005 209.682 250.491 209.356 250.152C209.037 249.807 208.539 249.634 207.862 249.634C207.309 249.634 206.778 249.716 206.27 249.879C205.762 250.041 205.274 250.233 204.805 250.455L204.063 248.814C204.649 248.508 205.29 248.277 205.987 248.121C206.684 247.958 207.341 247.877 207.96 247.877C209.333 247.877 210.369 248.176 211.065 248.775C211.768 249.374 212.12 250.315 212.12 251.597V258.873H210.479ZM207.061 257.31C207.895 257.31 208.562 257.079 209.063 256.617C209.571 256.148 209.825 255.494 209.825 254.654V253.716L208.438 253.775C207.357 253.814 206.57 253.996 206.075 254.322C205.587 254.641 205.342 255.133 205.342 255.797C205.342 256.278 205.486 256.653 205.772 256.92C206.059 257.18 206.488 257.31 207.061 257.31ZM219.107 257.213C219.667 257.213 220.227 257.125 220.787 256.949V258.677C220.533 258.788 220.204 258.879 219.8 258.951C219.403 259.029 218.99 259.068 218.56 259.068C216.386 259.068 215.298 257.922 215.298 255.631V249.81H213.824V248.795L215.406 247.955L216.187 245.67H217.603V248.072H220.679V249.81H217.603V255.591C217.603 256.145 217.74 256.555 218.013 256.822C218.293 257.082 218.658 257.213 219.107 257.213ZM228.135 249.81H225.498V258.873H223.194V249.81H221.416V248.736L223.194 248.033V247.33C223.194 246.054 223.493 245.11 224.092 244.498C224.691 243.879 225.606 243.57 226.836 243.57C227.643 243.57 228.438 243.703 229.219 243.97L228.614 245.709C228.047 245.526 227.507 245.435 226.992 245.435C226.472 245.435 226.091 245.598 225.85 245.924C225.615 246.243 225.498 246.724 225.498 247.369V248.072H228.135V249.81ZM239.321 253.453C239.321 255.217 238.869 256.594 237.964 257.584C237.059 258.573 235.799 259.068 234.185 259.068C233.175 259.068 232.284 258.84 231.509 258.384C230.734 257.929 230.138 257.274 229.722 256.422C229.305 255.569 229.097 254.579 229.097 253.453C229.097 251.702 229.546 250.334 230.444 249.351C231.343 248.368 232.609 247.877 234.243 247.877C235.806 247.877 237.043 248.381 237.954 249.39C238.866 250.393 239.321 251.747 239.321 253.453ZM231.46 253.453C231.46 255.946 232.381 257.193 234.224 257.193C236.047 257.193 236.958 255.946 236.958 253.453C236.958 250.985 236.04 249.752 234.204 249.752C233.241 249.752 232.541 250.071 232.104 250.709C231.675 251.347 231.46 252.261 231.46 253.453ZM247.207 247.877C247.669 247.877 248.05 247.909 248.349 247.974L248.125 250.113C247.799 250.035 247.461 249.996 247.109 249.996C246.191 249.996 245.446 250.295 244.873 250.894C244.306 251.493 244.023 252.271 244.023 253.228V258.873H241.728V248.072H243.525L243.828 249.976H243.945C244.303 249.332 244.769 248.821 245.342 248.443C245.921 248.065 246.543 247.877 247.207 247.877ZM259.223 258.873H256.918V252.213C256.918 251.386 256.762 250.771 256.45 250.367C256.137 249.957 255.649 249.752 254.985 249.752C254.099 249.752 253.448 250.041 253.032 250.621C252.622 251.194 252.417 252.151 252.417 253.492V258.873H250.122V248.072H251.918L252.241 249.488H252.358C252.657 248.974 253.09 248.577 253.657 248.297C254.23 248.017 254.858 247.877 255.542 247.877C257.202 247.877 258.302 248.443 258.842 249.576H258.999C259.318 249.042 259.767 248.625 260.346 248.326C260.926 248.026 261.59 247.877 262.338 247.877C263.627 247.877 264.565 248.202 265.151 248.853C265.743 249.504 266.04 250.497 266.04 251.832V258.873H263.745V252.213C263.745 251.386 263.585 250.771 263.266 250.367C262.954 249.957 262.465 249.752 261.801 249.752C260.909 249.752 260.255 250.032 259.838 250.591C259.428 251.145 259.223 251.998 259.223 253.15V258.873Z"
    fill="white" />
</svg>